<svg width="178" height="24" viewBox="0 0 178 24" fill="none" xmlns="http://www.w3.org/2000/svg">
<path d="M100.476 6.73955H96.7401L92.3472 14.2681L87.9543 6.73955H83.9137L90.2799 17.6325V23.6839H94.0855V17.681L100.476 6.7402V6.73955ZM71.2979 20.4641V9.95932H74.7749C78.0402 9.95932 80.1783 11.9687 80.1783 15.2117C80.1783 18.4547 78.0408 20.4641 74.7749 20.4641H71.2979ZM67.4923 23.6832H74.963C80.3426 23.6832 84.0309 20.3427 84.0309 15.2111C84.0309 10.0795 80.3426 6.73891 74.963 6.73891H67.4923V23.6839V23.6832ZM55.5114 20.5364V16.6146H63.1464V13.5647H55.5114V9.88569H64.1569V6.73891H51.7291V23.6839H64.4621V20.5371H55.5114V20.5364ZM39.7482 20.5364V16.6146H47.3832V13.5647H39.7482V9.88569H48.3936V6.73891H35.9659V23.6839H48.6989V20.5371H39.7482V20.5364ZM29.1063 12.8871C29.1063 14.7273 27.9316 15.8402 25.606 15.8402H22.505V9.93413H25.606C27.9316 9.93413 29.1063 11.0231 29.1063 12.8871ZM33.2642 23.6832L29.5758 18.2364C31.7134 17.2928 32.9589 15.4287 32.9589 12.8871C32.9589 9.08737 30.2102 6.73891 25.8173 6.73891H18.6989V23.6839H22.5044V18.9637H26.0047L29.1759 23.6839H33.2635L33.2642 23.6832Z" fill="black"/>
<path d="M162.856 20.5371V16.6152H170.49V13.5653H162.856V9.88632H171.501V6.73953H159.073V23.6838H171.806V20.5371H162.856ZM155.174 23.6838L155.127 6.73953H152.002L145.941 17.2689L139.786 6.73953H136.638V23.6838H140.209V13.7352L145.025 21.8928H146.74L151.579 13.5175L151.602 23.6838H155.174ZM123.059 17.0757L125.667 10.5878L128.274 17.0757H123.059ZM130.929 23.6838H134.923L127.57 6.73953H123.811L116.482 23.6838H120.381L121.838 20.0526H129.473L130.93 23.6838H130.929Z" fill="black"/>
<path d="M178 -0.000106812H171.475V3.36111H174.738V6.73912H178V3.36111V-0.000106812Z" fill="black"/>
<path d="M16.5614 13.316V15.5876C16.5614 15.9584 16.5344 16.3291 16.4749 16.694L16.4736 16.7011C15.7145 21.3554 11.4369 24.4945 6.91989 23.7123C4.70713 23.3286 2.84729 22.0762 1.61492 20.3498C0.331772 18.5529 -0.271251 16.2425 0.116138 13.8683C0.146853 13.6822 0.182583 13.4975 0.224582 13.3154C1.10216 9.48588 4.42882 6.73955 8.29456 6.73891H13.3482V10.0969H11.9741L8.29456 10.0975C5.51451 10.0988 3.26164 12.4215 3.26226 15.2853C3.26226 18.1492 5.51702 20.4706 8.29706 20.4699C10.5581 20.4693 12.5414 18.9152 13.1463 16.6701H8.86749V13.3147L16.562 13.316H16.5614Z" fill="black"/>
<path d="M116.482 13.3165V15.5881C116.482 15.9588 116.455 16.3295 116.396 16.6945L116.394 16.7016C115.635 21.3559 111.358 24.4949 106.841 23.7127C104.628 23.3291 102.768 22.0767 101.536 20.3502C100.252 18.5527 99.649 16.2424 100.037 13.8681C100.068 13.682 100.103 13.4973 100.145 13.3152C101.023 9.48568 104.35 6.73935 108.215 6.73871H113.269V10.0967H111.895L108.215 10.0973C105.435 10.0986 103.183 12.4213 103.183 15.2851C103.183 18.149 105.438 20.4704 108.218 20.4697C110.479 20.4691 112.462 18.915 113.067 16.6699H108.788V13.3145L116.483 13.3158L116.482 13.3165Z" fill="black"/>
</svg>
